<?xml version="1.0" encoding="UTF-8" standalone="no"?>
<!-- Created with Inkscape (http://www.inkscape.org/) -->

<svg
   width="50.843315mm"
   height="50.572514mm"
   viewBox="0 0 50.843315 50.572514"
   version="1.1"
   id="svg5"
   xml:space="preserve"
   inkscape:version="1.2 (dc2aeda, 2022-05-15)"
   sodipodi:docname="external_link_icon_black.svg"
   xmlns:inkscape="http://www.inkscape.org/namespaces/inkscape"
   xmlns:sodipodi="http://sodipodi.sourceforge.net/DTD/sodipodi-0.dtd"
   xmlns="http://www.w3.org/2000/svg"
   xmlns:svg="http://www.w3.org/2000/svg"><sodipodi:namedview
     id="namedview7"
     pagecolor="#ffffff"
     bordercolor="#000000"
     borderopacity="0.25"
     inkscape:showpageshadow="2"
     inkscape:pageopacity="0.0"
     inkscape:pagecheckerboard="0"
     inkscape:deskcolor="#d1d1d1"
     inkscape:document-units="mm"
     showgrid="false"
     inkscape:zoom="3.2083619"
     inkscape:cx="154.28434"
     inkscape:cy="91.168019"
     inkscape:window-width="1440"
     inkscape:window-height="789"
     inkscape:window-x="0"
     inkscape:window-y="25"
     inkscape:window-maximized="0"
     inkscape:current-layer="layer1" /><defs
     id="defs2" /><g
     inkscape:label="Layer 1"
     inkscape:groupmode="layer"
     id="layer1"
     transform="translate(-40.260392,-65.233826)"><path
       style="fill:#000000;stroke-width:0.352778"
       d="m 44.288696,115.58049 c -0.389227,-0.11354 -0.786202,-0.26176 -1.135234,-0.43676 -0.451703,-0.22648 -0.855536,-0.5519 -1.213379,-0.90866 -0.365592,-0.36448 -0.705497,-0.77297 -0.932098,-1.23682 -0.210345,-0.43057 -0.388477,-0.89517 -0.514438,-1.36473 -0.123567,-0.46063 -0.233155,-1.41162 -0.233155,-1.41162 l 0.100605,-17.731488 0.100605,-17.731488 c 0,0 0.254391,-0.891737 0.460195,-1.30428 0.218332,-0.437654 0.463316,-0.879065 0.8118,-1.222239 0.351623,-0.346265 0.784169,-0.643172 1.222239,-0.8704 0.435311,-0.225797 1.386321,-0.483636 1.386321,-0.483636 l 12.08264,-0.105418 9.436788,-0.105418 v 3.545001 3.545001 h -7.937491 l -10.583324,0.05886 v 15.463359 15.522224 h 15.522214 15.522211 v -10.583335 -7.9375 h 3.544997 3.544997 l -0.10542,9.436805 -0.10541,12.08264 c 0,0 -0.277759,0.88249 -0.494598,1.28809 -0.220824,0.41306 -0.487071,0.80918 -0.811028,1.14746 -0.342849,0.35801 -0.743977,0.66721 -1.176129,0.91002 -0.435213,0.24453 -1.398802,0.53498 -1.398802,0.53498 l -17.991651,0.0626 -17.991661,0.0626 c 0,0 -0.748759,-0.11994 -1.111794,-0.22585 z m 16.531068,-20.285615 -1.48456,-1.512658 c 0,0 -0.287694,-0.596871 -0.282766,-0.916562 0.0045,-0.290779 0.282766,-0.825345 0.282766,-0.825345 l 9.882534,-9.875416 10.052461,-10.011348 -4.214664,-0.04046 -4.044757,-0.176389 c 0,0 -0.461192,-0.102524 -0.622012,-0.259369 -0.171934,-0.167685 -0.293848,-0.657853 -0.293848,-0.657853 v -2.434167 -2.434166 c 0,0 0.102224,-0.520853 0.282808,-0.693013 0.162339,-0.154767 0.634422,-0.224209 0.634422,-0.224209 h 9.489714 9.489714 c 0,0 0.580724,-0.01 0.763333,0.176727 0.175993,0.179961 0.153887,0.739293 0.153887,0.739293 l 0.1049,9.154519 0.09001,9.868761 c 0,0 -0.160262,0.443352 -0.328028,0.59587 -0.15763,0.143304 -0.586619,0.253629 -0.586619,0.253629 l -5.11159,-0.02069 c 0,0 -0.432288,-0.107834 -0.584531,-0.256478 -0.161554,-0.157737 -0.286919,-0.6136 -0.286919,-0.6136 l -0.176387,-4.044752 -0.095,-4.207512 -9.956797,10.045302 -9.875414,9.882543 c 0,0 -0.592869,0.26539 -0.908171,0.264523 -0.309465,-8.51e-4 -0.889916,-0.264523 -0.889916,-0.264523 z"
       id="path400"
       sodipodi:nodetypes="ssssscccssscccccccccccccccccssscccsccscccccscccscccscccsccscccccscc" /></g></svg>
